<svg width="70" height="71" viewBox="0 0 70 71" fill="none" xmlns="http://www.w3.org/2000/svg">
<g filter="url(#filter0_d)">
<circle cx="34.8345" cy="22.6051" r="16.7999" fill="#F53838"/>
</g>
<path d="M33.6841 5.80518C24.4696 5.80518 17 13.3267 17 22.6052C17 31.8838 24.4696 39.4053 33.6841 39.4053C42.8987 39.4053 50.3683 31.8838 50.3683 22.6052C50.3683 13.3267 42.8987 5.80518 33.6841 5.80518ZM37.6362 17.4147H35.1284C34.8312 17.4147 34.501 17.8085 34.501 18.3317V20.1552H37.6379L37.1635 22.7557H34.501V30.5625H31.5413V22.7557H28.8562V20.1552H31.5413V18.6257C31.5413 16.4312 33.0533 14.648 35.1284 14.648H37.6362V17.4147Z" fill="white"/>
<defs>
<filter id="filter0_d" x="0.0346069" y="0.805176" width="69.5999" height="69.5999" filterUnits="userSpaceOnUse" color-interpolation-filters="sRGB">
<feFlood flood-opacity="0" result="BackgroundImageFix"/>
<feColorMatrix in="SourceAlpha" type="matrix" values="0 0 0 0 0 0 0 0 0 0 0 0 0 0 0 0 0 0 127 0" result="hardAlpha"/>
<feOffset dy="13"/>
<feGaussianBlur stdDeviation="9"/>
<feColorMatrix type="matrix" values="0 0 0 0 0.0658854 0 0 0 0 0.0730469 0 0 0 0 0.1375 0 0 0 0.08 0"/>
<feBlend mode="normal" in2="BackgroundImageFix" result="effect1_dropShadow"/>
<feBlend mode="normal" in="SourceGraphic" in2="effect1_dropShadow" result="shape"/>
</filter>
</defs>
</svg>
