<svg width="70" height="71" viewBox="0 0 70 71" fill="none" xmlns="http://www.w3.org/2000/svg">
<g filter="url(#filter0_d)">
<circle cx="35.0345" cy="22.6051" r="16.7999" fill="#F53838"/>
</g>
<path d="M39.3586 22.6052C39.3586 23.9976 38.8093 25.333 37.8315 26.3175C36.8537 27.3021 35.5276 27.8552 34.1448 27.8552C32.762 27.8552 31.4358 27.3021 30.4581 26.3175C29.4803 25.333 28.931 23.9976 28.931 22.6052C28.931 22.306 28.9623 22.0137 29.0161 21.7302H27.193V28.725C27.193 29.2115 27.5841 29.6052 28.0672 29.6052H40.224C40.4556 29.6048 40.6775 29.5118 40.8411 29.3468C41.0046 29.1818 41.0965 28.9581 41.0965 28.725V21.7302H39.2734C39.3273 22.0137 39.3586 22.306 39.3586 22.6052ZM34.1448 26.1052C34.6013 26.1051 35.0534 26.0145 35.4752 25.8384C35.897 25.6624 36.2802 25.4044 36.6029 25.0792C36.9257 24.7541 37.1817 24.3681 37.3563 23.9433C37.5309 23.5185 37.6207 23.0632 37.6206 22.6035C37.6205 22.1437 37.5305 21.6885 37.3556 21.2638C37.1808 20.8391 36.9246 20.4532 36.6017 20.1282C36.2788 19.8032 35.8954 19.5454 35.4736 19.3696C35.0517 19.1938 34.5996 19.1033 34.143 19.1035C33.2209 19.1037 32.3367 19.4728 31.6849 20.1295C31.033 20.7862 30.6669 21.6767 30.6672 22.6052C30.6674 23.5337 31.0339 24.4241 31.6861 25.0805C32.3383 25.7368 33.2227 26.1055 34.1448 26.1052ZM38.3158 18.9302H40.3996C40.538 18.9302 40.6708 18.875 40.7689 18.7766C40.8669 18.6781 40.9222 18.5446 40.9227 18.4052V16.307C40.9227 16.1673 40.8676 16.0333 40.7695 15.9345C40.6714 15.8357 40.5383 15.7802 40.3996 15.7802H38.3158C38.1771 15.7802 38.044 15.8357 37.9459 15.9345C37.8478 16.0333 37.7927 16.1673 37.7927 16.307V18.4052C37.7944 18.694 38.029 18.9302 38.3158 18.9302ZM34.1448 5.80518C29.7199 5.80518 25.4762 7.57518 22.3473 10.7258C19.2184 13.8764 17.4606 18.1496 17.4606 22.6052C17.4606 27.0609 19.2184 31.334 22.3473 34.4847C25.4762 37.6353 29.7199 39.4053 34.1448 39.4053C36.3358 39.4053 38.5053 38.9707 40.5295 38.1264C42.5537 37.2822 44.393 36.0447 45.9422 34.4847C47.4915 32.9246 48.7204 31.0726 49.5589 29.0343C50.3974 26.996 50.8289 24.8114 50.8289 22.6052C50.8289 20.399 50.3974 18.2144 49.5589 16.1761C48.7204 14.1378 47.4915 12.2858 45.9422 10.7258C44.393 9.16577 42.5537 7.92828 40.5295 7.084C38.5053 6.23972 36.3358 5.80518 34.1448 5.80518ZM42.8344 29.411C42.8344 30.4802 41.9655 31.3552 40.9036 31.3552H27.386C26.3241 31.3552 25.4551 30.4802 25.4551 29.411V15.7995C25.4551 14.7302 26.3241 13.8552 27.386 13.8552H40.9036C41.9655 13.8552 42.8344 14.7302 42.8344 15.7995V29.411Z" fill="white"/>
<defs>
<filter id="filter0_d" x="0.234558" y="0.805176" width="69.5999" height="69.5999" filterUnits="userSpaceOnUse" color-interpolation-filters="sRGB">
<feFlood flood-opacity="0" result="BackgroundImageFix"/>
<feColorMatrix in="SourceAlpha" type="matrix" values="0 0 0 0 0 0 0 0 0 0 0 0 0 0 0 0 0 0 127 0" result="hardAlpha"/>
<feOffset dy="13"/>
<feGaussianBlur stdDeviation="9"/>
<feColorMatrix type="matrix" values="0 0 0 0 0.0658854 0 0 0 0 0.0730469 0 0 0 0 0.1375 0 0 0 0.08 0"/>
<feBlend mode="normal" in2="BackgroundImageFix" result="effect1_dropShadow"/>
<feBlend mode="normal" in="SourceGraphic" in2="effect1_dropShadow" result="shape"/>
</filter>
</defs>
</svg>
