<svg width="150" height="37" viewBox="0 0 150 37" fill="none" xmlns="http://www.w3.org/2000/svg">
<path d="M47.0745 25.1162C46.9412 25.1162 46.8278 25.0695 46.7345 24.9762C46.6412 24.8829 46.5945 24.7695 46.5945 24.6362V11.5962C46.5945 11.4495 46.6412 11.3362 46.7345 11.2562C46.8278 11.1629 46.9412 11.1162 47.0745 11.1162H48.9545C49.1012 11.1162 49.2145 11.1629 49.2945 11.2562C49.3878 11.3362 49.4345 11.4495 49.4345 11.5962V22.7162H55.7745C55.9212 22.7162 56.0412 22.7629 56.1345 22.8562C56.2278 22.9495 56.2745 23.0629 56.2745 23.1962V24.6362C56.2745 24.7695 56.2278 24.8829 56.1345 24.9762C56.0412 25.0695 55.9212 25.1162 55.7745 25.1162H47.0745ZM60.9956 25.3162C60.3156 25.3162 59.6889 25.1829 59.1156 24.9162C58.5556 24.6362 58.1089 24.2629 57.7756 23.7962C57.4556 23.3295 57.2956 22.8162 57.2956 22.2562C57.2956 21.3495 57.6622 20.6162 58.3956 20.0562C59.1289 19.4962 60.1356 19.1162 61.4156 18.9162L64.1556 18.5162V18.0962C64.1556 17.5229 64.0089 17.0895 63.7156 16.7962C63.4222 16.5029 62.9556 16.3562 62.3156 16.3562C61.8756 16.3562 61.5222 16.4362 61.2556 16.5962C60.9889 16.7562 60.7689 16.9229 60.5956 17.0962C60.4356 17.2562 60.3289 17.3629 60.2756 17.4162C60.2222 17.5762 60.1222 17.6562 59.9756 17.6562H58.4156C58.2956 17.6562 58.1889 17.6162 58.0956 17.5362C58.0156 17.4562 57.9756 17.3495 57.9756 17.2162C57.9889 16.8829 58.1489 16.5095 58.4556 16.0962C58.7756 15.6695 59.2622 15.3029 59.9156 14.9962C60.5689 14.6762 61.3756 14.5162 62.3356 14.5162C63.9089 14.5162 65.0556 14.8695 65.7756 15.5762C66.4956 16.2829 66.8556 17.2095 66.8556 18.3562V24.6362C66.8556 24.7695 66.8089 24.8829 66.7156 24.9762C66.6356 25.0695 66.5222 25.1162 66.3756 25.1162H64.7156C64.5822 25.1162 64.4689 25.0695 64.3756 24.9762C64.2822 24.8829 64.2356 24.7695 64.2356 24.6362V23.8562C63.9422 24.2829 63.5289 24.6362 62.9956 24.9162C62.4622 25.1829 61.7956 25.3162 60.9956 25.3162ZM61.6756 23.3962C62.4089 23.3962 63.0089 23.1562 63.4756 22.6762C63.9422 22.1962 64.1756 21.5029 64.1756 20.5962V20.1962L62.1756 20.5162C60.6422 20.7562 59.8756 21.2695 59.8756 22.0562C59.8756 22.4829 60.0489 22.8162 60.3956 23.0562C60.7556 23.2829 61.1822 23.3962 61.6756 23.3962ZM73.3809 25.3162C72.3676 25.3162 71.5209 25.1629 70.8409 24.8562C70.1609 24.5495 69.6542 24.1962 69.3209 23.7962C69.0009 23.3829 68.8409 23.0295 68.8409 22.7362C68.8409 22.6029 68.8809 22.4962 68.9609 22.4162C69.0542 22.3362 69.1609 22.2962 69.2809 22.2962H70.9209C71.0276 22.2962 71.1209 22.3495 71.2009 22.4562C71.2676 22.5095 71.4142 22.6362 71.6409 22.8362C71.8809 23.0362 72.1476 23.1962 72.4409 23.3162C72.7476 23.4229 73.0809 23.4762 73.4409 23.4762C73.9742 23.4762 74.4076 23.3762 74.7409 23.1762C75.0742 22.9629 75.2409 22.6629 75.2409 22.2762C75.2409 22.0095 75.1609 21.7962 75.0009 21.6362C74.8542 21.4629 74.5809 21.3095 74.1809 21.1762C73.7942 21.0295 73.2076 20.8695 72.4209 20.6962C71.2876 20.4562 70.4476 20.0895 69.9009 19.5962C69.3676 19.1029 69.1009 18.4495 69.1009 17.6362C69.1009 17.1029 69.2609 16.6029 69.5809 16.1362C69.9009 15.6562 70.3742 15.2695 71.0009 14.9762C71.6409 14.6695 72.4009 14.5162 73.2809 14.5162C74.1876 14.5162 74.9676 14.6629 75.6209 14.9562C76.2742 15.2362 76.7676 15.5762 77.1009 15.9762C77.4476 16.3762 77.6209 16.7295 77.6209 17.0362C77.6209 17.1562 77.5742 17.2629 77.4809 17.3562C77.4009 17.4362 77.3009 17.4762 77.1809 17.4762H75.6809C75.5342 17.4762 75.4209 17.4229 75.3409 17.3162C75.2476 17.2495 75.0942 17.1295 74.8809 16.9562C74.6809 16.7695 74.4542 16.6229 74.2009 16.5162C73.9476 16.4095 73.6409 16.3562 73.2809 16.3562C72.7876 16.3562 72.4076 16.4629 72.1409 16.6762C71.8742 16.8895 71.7409 17.1695 71.7409 17.5162C71.7409 17.7562 71.8009 17.9562 71.9209 18.1162C72.0542 18.2762 72.3142 18.4295 72.7009 18.5762C73.0876 18.7095 73.6676 18.8495 74.4409 18.9962C76.8409 19.4629 78.0409 20.5095 78.0409 22.1362C78.0409 23.0829 77.6276 23.8495 76.8009 24.4362C75.9876 25.0229 74.8476 25.3162 73.3809 25.3162ZM80.585 25.1162C80.4516 25.1162 80.3383 25.0695 80.245 24.9762C80.1516 24.8829 80.105 24.7695 80.105 24.6362V11.3962C80.105 11.2495 80.1516 11.1362 80.245 11.0562C80.3383 10.9629 80.4516 10.9162 80.585 10.9162H82.265C82.4116 10.9162 82.525 10.9629 82.605 11.0562C82.6983 11.1362 82.745 11.2495 82.745 11.3962V24.6362C82.745 24.7695 82.6983 24.8829 82.605 24.9762C82.525 25.0695 82.4116 25.1162 82.265 25.1162H80.585ZM89.8975 25.3162C88.4041 25.3162 87.2175 24.8895 86.3375 24.0362C85.4708 23.1829 85.0108 21.9695 84.9575 20.3962L84.9375 19.8962C84.9375 18.2295 85.3708 16.9162 86.2375 15.9562C87.1175 14.9962 88.3308 14.5162 89.8775 14.5162C91.4641 14.5162 92.6841 14.9962 93.5375 15.9562C94.4041 16.9162 94.8375 18.1962 94.8375 19.7962V20.2162C94.8375 20.3495 94.7908 20.4629 94.6975 20.5562C94.6041 20.6495 94.4841 20.6962 94.3375 20.6962H87.6975V20.8562C87.7241 21.6029 87.9241 22.2229 88.2975 22.7162C88.6841 23.1962 89.2108 23.4362 89.8775 23.4362C90.6375 23.4362 91.2575 23.1295 91.7375 22.5162C91.8575 22.3695 91.9508 22.2829 92.0175 22.2562C92.0841 22.2162 92.1975 22.1962 92.3575 22.1962H94.1175C94.2375 22.1962 94.3375 22.2295 94.4175 22.2962C94.5108 22.3629 94.5575 22.4562 94.5575 22.5762C94.5575 22.8962 94.3641 23.2762 93.9775 23.7162C93.6041 24.1429 93.0641 24.5162 92.3575 24.8362C91.6508 25.1562 90.8308 25.3162 89.8975 25.3162ZM92.0775 18.9962V18.9562C92.0775 18.1695 91.8775 17.5429 91.4775 17.0762C91.0908 16.5962 90.5575 16.3562 89.8775 16.3562C89.1975 16.3562 88.6641 16.5962 88.2775 17.0762C87.8908 17.5429 87.6975 18.1695 87.6975 18.9562V18.9962H92.0775ZM100.92 25.3162C99.9066 25.3162 99.06 25.1629 98.38 24.8562C97.7 24.5495 97.1933 24.1962 96.86 23.7962C96.54 23.3829 96.38 23.0295 96.38 22.7362C96.38 22.6029 96.42 22.4962 96.5 22.4162C96.5933 22.3362 96.7 22.2962 96.82 22.2962H98.46C98.5666 22.2962 98.66 22.3495 98.74 22.4562C98.8066 22.5095 98.9533 22.6362 99.18 22.8362C99.42 23.0362 99.6866 23.1962 99.98 23.3162C100.287 23.4229 100.62 23.4762 100.98 23.4762C101.513 23.4762 101.947 23.3762 102.28 23.1762C102.613 22.9629 102.78 22.6629 102.78 22.2762C102.78 22.0095 102.7 21.7962 102.54 21.6362C102.393 21.4629 102.12 21.3095 101.72 21.1762C101.333 21.0295 100.747 20.8695 99.96 20.6962C98.8266 20.4562 97.9866 20.0895 97.44 19.5962C96.9066 19.1029 96.64 18.4495 96.64 17.6362C96.64 17.1029 96.8 16.6029 97.12 16.1362C97.44 15.6562 97.9133 15.2695 98.54 14.9762C99.18 14.6695 99.94 14.5162 100.82 14.5162C101.727 14.5162 102.507 14.6629 103.16 14.9562C103.813 15.2362 104.307 15.5762 104.64 15.9762C104.987 16.3762 105.16 16.7295 105.16 17.0362C105.16 17.1562 105.113 17.2629 105.02 17.3562C104.94 17.4362 104.84 17.4762 104.72 17.4762H103.22C103.073 17.4762 102.96 17.4229 102.88 17.3162C102.787 17.2495 102.633 17.1295 102.42 16.9562C102.22 16.7695 101.993 16.6229 101.74 16.5162C101.487 16.4095 101.18 16.3562 100.82 16.3562C100.327 16.3562 99.9466 16.4629 99.68 16.6762C99.4133 16.8895 99.28 17.1695 99.28 17.5162C99.28 17.7562 99.34 17.9562 99.46 18.1162C99.5933 18.2762 99.8533 18.4295 100.24 18.5762C100.627 18.7095 101.207 18.8495 101.98 18.9962C104.38 19.4629 105.58 20.5095 105.58 22.1362C105.58 23.0829 105.167 23.8495 104.34 24.4362C103.527 25.0229 102.387 25.3162 100.92 25.3162ZM111.664 25.1162C111.437 25.1162 111.251 25.0629 111.104 24.9562C110.971 24.8362 110.877 24.6895 110.824 24.5162L106.784 11.7162L106.744 11.5362C106.744 11.4295 106.784 11.3362 106.864 11.2562C106.957 11.1629 107.064 11.1162 107.184 11.1162H109.804C110.004 11.1162 110.164 11.1762 110.284 11.2962C110.417 11.4029 110.504 11.5229 110.544 11.6562L113.264 20.6962L116.004 11.6562C116.044 11.5095 116.124 11.3829 116.244 11.2762C116.377 11.1695 116.544 11.1162 116.744 11.1162H119.364C119.484 11.1162 119.584 11.1629 119.664 11.2562C119.744 11.3362 119.784 11.4295 119.784 11.5362C119.784 11.6029 119.777 11.6629 119.764 11.7162L115.704 24.5162C115.664 24.6895 115.571 24.8362 115.424 24.9562C115.291 25.0629 115.111 25.1162 114.884 25.1162H111.664ZM122.109 25.1162C121.976 25.1162 121.856 25.0695 121.749 24.9762C121.656 24.8695 121.609 24.7495 121.609 24.6162V11.6362C121.609 11.4895 121.656 11.3695 121.749 11.2762C121.843 11.1695 121.963 11.1162 122.109 11.1162H127.769C129.503 11.1162 130.863 11.5095 131.849 12.2962C132.836 13.0829 133.329 14.2362 133.329 15.7562C133.329 17.2762 132.836 18.4162 131.849 19.1762C130.863 19.9229 129.503 20.2962 127.769 20.2962H125.489V24.6162C125.489 24.7495 125.443 24.8695 125.349 24.9762C125.256 25.0695 125.136 25.1162 124.989 25.1162H122.109ZM127.669 17.4362C128.216 17.4362 128.643 17.2962 128.949 17.0162C129.269 16.7229 129.429 16.2962 129.429 15.7362C129.429 15.2162 129.283 14.7962 128.989 14.4762C128.709 14.1562 128.269 13.9962 127.669 13.9962H125.429V17.4362H127.669ZM135.684 25.1162C135.55 25.1162 135.43 25.0695 135.324 24.9762C135.23 24.8695 135.184 24.7495 135.184 24.6162V11.6362C135.184 11.4895 135.23 11.3695 135.324 11.2762C135.417 11.1695 135.537 11.1162 135.684 11.1162H137.944C138.25 11.1162 138.477 11.2429 138.624 11.4962L143.344 18.9562V11.6362C143.344 11.4895 143.39 11.3695 143.484 11.2762C143.577 11.1695 143.697 11.1162 143.844 11.1162H146.384C146.53 11.1162 146.65 11.1695 146.744 11.2762C146.837 11.3695 146.884 11.4895 146.884 11.6362V24.5962C146.884 24.7429 146.837 24.8695 146.744 24.9762C146.65 25.0695 146.53 25.1162 146.384 25.1162H144.124C143.817 25.1162 143.59 24.9895 143.444 24.7362L138.744 17.5762V24.6162C138.744 24.7629 138.69 24.8829 138.584 24.9762C138.49 25.0695 138.37 25.1162 138.224 25.1162H135.684Z" fill="#0B132A"/>
<path d="M31.1818 13.6477L31.16 13.626C31.1583 13.6247 31.1568 13.6231 31.156 13.6212L17.5351 0L3.91431 13.6209C3.91275 13.6225 3.91029 13.6256 3.91029 13.6256L3.88781 13.6474C1.80501 15.7419 0.482071 18.4725 0.129303 21.4052C-0.223466 24.3379 0.414183 27.3044 1.94088 29.8331C3.46758 32.3619 5.7957 34.3077 8.55518 35.3612C11.3146 36.4147 14.3471 36.5157 17.1704 35.6477C17.408 35.5751 17.662 35.5751 17.8996 35.6477C20.7227 36.5153 23.755 36.4144 26.5143 35.3607C29.2736 34.307 31.6015 32.3613 33.128 29.8328C34.6546 27.3042 35.2924 24.3379 34.9397 21.4054C34.5871 18.4728 33.2644 15.7422 31.1818 13.6477ZM8.75768 22.6298C8.69138 22.6961 8.63879 22.7749 8.60293 22.8615C8.56705 22.948 8.54858 23.0408 8.5486 23.1346C8.57284 25.5386 9.25224 27.8904 10.5137 29.9371C10.5423 29.9835 10.5556 30.0379 10.5515 30.0922C10.5475 30.1465 10.5263 30.1982 10.4911 30.2399C10.4558 30.2816 10.4083 30.311 10.3553 30.324C10.3024 30.337 10.2466 30.333 10.1961 30.3124C9.24781 29.9135 8.3863 29.3336 7.6598 28.6053C6.17095 27.1162 5.33394 25.097 5.33259 22.9912C5.33123 20.8855 6.16565 18.8652 7.65261 17.3743L17.5351 7.49273L27.417 17.3743C28.9042 18.865 29.7389 20.8853 29.7375 22.9912C29.7363 25.097 28.8991 27.1162 27.4102 28.6053C26.6836 29.3336 25.8222 29.9135 24.8741 30.3124C24.8234 30.333 24.7677 30.337 24.7147 30.324C24.6618 30.311 24.6143 30.2814 24.5789 30.2399C24.5438 30.1982 24.5225 30.1465 24.5184 30.092C24.5144 30.0377 24.5276 29.9833 24.5563 29.9369C25.818 27.8904 26.4977 25.5386 26.5224 23.1346C26.5224 23.0408 26.5037 22.948 26.4677 22.8613C26.4316 22.7746 26.3788 22.696 26.3124 22.6296L21.6381 17.6717C21.5915 17.6329 21.533 17.6116 21.4723 17.6116C21.4118 17.6116 21.353 17.6329 21.3066 17.6717C21.26 17.7104 21.2287 17.7644 21.2178 17.824C21.2069 17.8837 21.2173 17.945 21.2472 17.9978C23.0626 21.283 21.5015 26.0017 18.8982 28.6053L18.8845 28.6191C18.5252 28.9745 18.0401 29.1738 17.5347 29.1736C17.0293 29.1734 16.5443 28.9738 16.1853 28.6182L16.1726 28.6053C13.5684 26.0017 12.0081 21.2835 13.8238 17.9985C13.8537 17.9457 13.8641 17.8844 13.8532 17.8247C13.8423 17.7651 13.8109 17.7111 13.7644 17.6724C13.7179 17.6336 13.6592 17.6123 13.5986 17.6123C13.538 17.6123 13.4794 17.6336 13.4329 17.6724L8.75768 22.6298Z" fill="#F53838"/>
</svg>
