<svg width="71" height="71" viewBox="0 0 71 71" fill="none" xmlns="http://www.w3.org/2000/svg">
<g filter="url(#filter0_d)">
<circle cx="35.4345" cy="22.6051" r="16.7999" fill="#F53838"/>
</g>
<path d="M33.9145 5.80518C24.6999 5.80518 17.2303 13.3267 17.2303 22.6052C17.2303 31.8838 24.6999 39.4053 33.9145 39.4053C43.129 39.4053 50.5986 31.8838 50.5986 22.6052C50.5986 13.3267 43.129 5.80518 33.9145 5.80518ZM40.7011 19.5672C40.708 19.7107 40.7098 19.8542 40.7098 19.9942C40.7098 24.3692 37.406 29.411 31.3614 29.411C29.5754 29.414 27.8264 28.8975 26.3249 27.9235C26.5804 27.955 26.8428 27.9672 27.1087 27.9672C28.6485 27.9672 30.0649 27.4405 31.1894 26.5515C30.5042 26.5379 29.8402 26.3095 29.29 25.8979C28.7399 25.4863 28.3309 24.9122 28.1202 24.2555C28.6123 24.3497 29.1193 24.33 29.6027 24.1977C28.8589 24.0463 28.1901 23.6405 27.7095 23.0491C27.229 22.4578 26.9664 21.7173 26.9662 20.9532V20.913C27.4094 21.1597 27.9169 21.3102 28.4556 21.3277C27.7584 20.8603 27.2648 20.1424 27.0758 19.3207C26.8868 18.499 27.0167 17.6357 27.4389 16.9072C28.2644 17.9292 29.2938 18.7653 30.4604 19.3613C31.6271 19.9572 32.9051 20.2999 34.2117 20.367C34.0455 19.657 34.117 18.9117 34.415 18.2468C34.713 17.582 35.2207 17.0349 35.8593 16.6907C36.4979 16.3464 37.2316 16.2242 37.9463 16.3431C38.661 16.462 39.3166 16.8154 39.8113 17.3482C40.5467 17.2017 41.252 16.9301 41.8968 16.545C41.6517 17.3117 41.1385 17.9628 40.4526 18.3772C41.104 18.2982 41.7401 18.1218 42.34 17.854C41.8994 18.5188 41.3444 19.099 40.7011 19.5672Z" fill="white"/>
<defs>
<filter id="filter0_d" x="0.634583" y="0.805176" width="69.5999" height="69.5999" filterUnits="userSpaceOnUse" color-interpolation-filters="sRGB">
<feFlood flood-opacity="0" result="BackgroundImageFix"/>
<feColorMatrix in="SourceAlpha" type="matrix" values="0 0 0 0 0 0 0 0 0 0 0 0 0 0 0 0 0 0 127 0" result="hardAlpha"/>
<feOffset dy="13"/>
<feGaussianBlur stdDeviation="9"/>
<feColorMatrix type="matrix" values="0 0 0 0 0.0658854 0 0 0 0 0.0730469 0 0 0 0 0.1375 0 0 0 0.08 0"/>
<feBlend mode="normal" in2="BackgroundImageFix" result="effect1_dropShadow"/>
<feBlend mode="normal" in="SourceGraphic" in2="effect1_dropShadow" result="shape"/>
</filter>
</defs>
</svg>
