<svg width="55" height="56" viewBox="0 0 55 56" fill="none" xmlns="http://www.w3.org/2000/svg">
<rect y="0.5" width="55" height="55" rx="27.5" fill="#FFECEC"/>
<path fill-rule="evenodd" clip-rule="evenodd" d="M27.5 26.8C28.4548 26.8 29.3705 26.4207 30.0456 25.7456C30.7207 25.0704 31.1 24.1548 31.1 23.2C31.1 22.2452 30.7207 21.3295 30.0456 20.6544C29.3705 19.9793 28.4548 19.6 27.5 19.6C26.5452 19.6 25.6296 19.9793 24.9544 20.6544C24.2793 21.3295 23.9 22.2452 23.9 23.2C23.9 24.1548 24.2793 25.0704 24.9544 25.7456C25.6296 26.4207 26.5452 26.8 27.5 26.8ZM22.3987 37.6C20.5769 37.6 19.0422 36.0686 19.7394 34.3854C20.1616 33.3663 20.7803 32.4403 21.5603 31.6603C22.3403 30.8803 23.2663 30.2615 24.2855 29.8394C25.3046 29.4172 26.3969 29.2 27.5 29.2C28.6031 29.2 29.6954 29.4172 30.7145 29.8394C31.7337 30.2615 32.6597 30.8803 33.4397 31.6603C34.2197 32.4403 34.8385 33.3663 35.2606 34.3854C35.9578 36.0686 34.4232 37.6 32.6014 37.6H22.3987Z" fill="#F53838"/>
</svg>
