<svg width="16" height="10" viewBox="0 0 16 10" fill="none" xmlns="http://www.w3.org/2000/svg">
<path d="M6.67132 9.73014C6.52812 9.7304 6.38628 9.70475 6.25392 9.65464C6.12157 9.60453 6.00131 9.53096 5.90005 9.43814L1.27241 5.19514C1.16815 5.10296 1.08496 4.99267 1.02769 4.8707C0.970429 4.74874 0.940236 4.61754 0.938876 4.48476C0.937516 4.35198 0.965016 4.22029 1.01977 4.09735C1.07453 3.97442 1.15545 3.86272 1.2578 3.76876C1.36016 3.6748 1.4819 3.60047 1.61593 3.55011C1.74996 3.49974 1.89359 3.47434 2.03844 3.4754C2.18329 3.47646 2.32646 3.50395 2.45959 3.55627C2.59273 3.60859 2.71316 3.6847 2.81387 3.78014L6.67023 7.31514L13.6139 0.952138C13.8184 0.764498 14.0959 0.659029 14.3853 0.658936C14.6747 0.658842 14.9523 0.76413 15.157 0.951638C15.3617 1.13915 15.4767 1.39351 15.4768 1.65878C15.4769 1.92406 15.3621 2.1785 15.1575 2.36614L7.44259 9.43814C7.34134 9.53096 7.22108 9.60453 7.08872 9.65464C6.95637 9.70475 6.81452 9.7304 6.67132 9.73014Z" fill="#2FAB73"/>
</svg>
