<svg width="20" height="18" viewBox="0 0 20 18" fill="none" xmlns="http://www.w3.org/2000/svg">
<path d="M1.25 7.7501H16.075L11.5375 2.3001C11.3253 2.04483 11.2232 1.71573 11.2537 1.3852C11.2842 1.05466 11.4447 0.749774 11.7 0.5376C11.9553 0.325427 12.2844 0.22335 12.6149 0.253825C12.9454 0.284299 13.2503 0.44483 13.4625 0.700101L19.7125 8.2001C19.7545 8.25976 19.7922 8.32242 19.825 8.3876C19.825 8.4501 19.825 8.4876 19.9125 8.5501C19.9692 8.69342 19.9988 8.84599 20 9.0001C19.9988 9.15421 19.9692 9.30678 19.9125 9.4501C19.9125 9.5126 19.9125 9.5501 19.825 9.6126C19.7922 9.67778 19.7545 9.74045 19.7125 9.8001L13.4625 17.3001C13.345 17.4412 13.1978 17.5547 13.0314 17.6325C12.8651 17.7102 12.6836 17.7504 12.5 17.7501C12.2079 17.7507 11.9249 17.649 11.7 17.4626C11.5734 17.3577 11.4688 17.2288 11.3921 17.0834C11.3154 16.9379 11.2682 16.7788 11.2531 16.6151C11.238 16.4513 11.2553 16.2863 11.3041 16.1292C11.3529 15.9722 11.4322 15.8264 11.5375 15.7001L16.075 10.2501H1.25C0.91848 10.2501 0.600536 10.1184 0.366116 9.88398C0.131695 9.64956 0 9.33162 0 9.0001C0 8.66858 0.131695 8.35064 0.366116 8.11622C0.600536 7.8818 0.91848 7.7501 1.25 7.7501Z" fill="white"/>
</svg>
