<svg width="21" height="20" viewBox="0 0 21 20" fill="none" xmlns="http://www.w3.org/2000/svg">
<path d="M10.4423 0C4.72507 0 0.0737305 4.486 0.0737305 10C0.0737305 15.514 4.72507 20 10.4423 20C16.1595 20 20.8109 15.514 20.8109 10C20.8109 4.486 16.1595 0 10.4423 0ZM8.36962 14.413L5.27978 11.4394C4.86452 11.0398 4.86369 10.3754 5.27795 9.9747C5.67179 9.59378 6.29652 9.59307 6.69123 9.97308L8.36755 11.587L13.1501 6.97442C13.5444 6.59416 14.1689 6.59416 14.5632 6.97442C14.9782 7.37465 14.9782 8.03935 14.5632 8.43958L8.36962 14.413Z" fill="#2FAB73"/>
</svg>
